<svg width="251" height="96" viewBox="0 0 251 96" fill="none" xmlns="http://www.w3.org/2000/svg">
<path d="M44.75 31.6875V72H35.75V25.1875H44.0938L44.75 31.6875ZM66.1562 41.7188V42.375C66.1562 44.8333 65.8646 47.1146 65.2812 49.2188C64.7188 51.3229 63.8854 53.1562 62.7812 54.7188C61.6771 56.2604 60.3021 57.4688 58.6562 58.3438C57.0312 59.1979 55.1562 59.625 53.0312 59.625C50.9688 59.625 49.1771 59.2083 47.6562 58.375C46.1354 57.5417 44.8542 56.375 43.8125 54.875C42.7917 53.3542 41.9688 51.5938 41.3438 49.5938C40.7188 47.5938 40.2396 45.4479 39.9062 43.1562V41.4375C40.2396 38.9792 40.7188 36.7292 41.3438 34.6875C41.9688 32.625 42.7917 30.8438 43.8125 29.3438C44.8542 27.8229 46.125 26.6458 47.625 25.8125C49.1458 24.9792 50.9271 24.5625 52.9688 24.5625C55.1146 24.5625 57 24.9688 58.625 25.7812C60.2708 26.5938 61.6458 27.7604 62.75 29.2812C63.875 30.8021 64.7188 32.6146 65.2812 34.7188C65.8646 36.8229 66.1562 39.1562 66.1562 41.7188ZM57.125 42.375V41.7188C57.125 40.2812 57 38.9583 56.75 37.75C56.5208 36.5208 56.1458 35.4479 55.625 34.5312C55.125 33.6146 54.4583 32.9062 53.625 32.4062C52.8125 31.8854 51.8229 31.625 50.6562 31.625C49.4271 31.625 48.375 31.8229 47.5 32.2188C46.6458 32.6146 45.9479 33.1875 45.4062 33.9375C44.8646 34.6875 44.4583 35.5833 44.1875 36.625C43.9167 37.6667 43.75 38.8438 43.6875 40.1562V44.5C43.7917 46.0417 44.0833 47.4271 44.5625 48.6562C45.0417 49.8646 45.7812 50.8229 46.7812 51.5312C47.7812 52.2396 49.0938 52.5938 50.7188 52.5938C51.9062 52.5938 52.9062 52.3333 53.7188 51.8125C54.5312 51.2708 55.1875 50.5312 55.6875 49.5938C56.2083 48.6562 56.5729 47.5729 56.7812 46.3438C57.0104 45.1146 57.125 43.7917 57.125 42.375ZM116.875 32.5625V59H107.875V25.1875H116.344L116.875 32.5625ZM127.062 24.9688L126.906 33.3125C126.469 33.25 125.938 33.1979 125.312 33.1562C124.708 33.0938 124.156 33.0625 123.656 33.0625C122.385 33.0625 121.281 33.2292 120.344 33.5625C119.427 33.875 118.656 34.3438 118.031 34.9688C117.427 35.5938 116.969 36.3542 116.656 37.25C116.365 38.1458 116.198 39.1667 116.156 40.3125L114.344 39.75C114.344 37.5625 114.562 35.5521 115 33.7188C115.438 31.8646 116.073 30.25 116.906 28.875C117.76 27.5 118.802 26.4375 120.031 25.6875C121.26 24.9375 122.667 24.5625 124.25 24.5625C124.75 24.5625 125.26 24.6042 125.781 24.6875C126.302 24.75 126.729 24.8438 127.062 24.9688ZM142.562 59H133.531V23.6562C133.531 20.7812 134.115 18.3542 135.281 16.375C136.469 14.3958 138.156 12.8958 140.344 11.875C142.552 10.8542 145.219 10.3438 148.344 10.3438C150.115 10.3438 151.833 10.5208 153.5 10.875C155.167 11.2083 156.885 11.6458 158.656 12.1875L157.344 19.4062C156.198 19.0521 154.969 18.7188 153.656 18.4062C152.344 18.0938 150.76 17.9375 148.906 17.9375C146.823 17.9375 145.24 18.4271 144.156 19.4062C143.094 20.3646 142.562 21.7812 142.562 23.6562V59ZM149.281 25.1875V31.5625H128.5V25.1875H149.281ZM162.844 25.1875V59H153.812V25.1875H162.844ZM185.938 59.625C183.312 59.625 180.958 59.2083 178.875 58.375C176.792 57.5208 175.021 56.3438 173.562 54.8438C172.125 53.3438 171.021 51.6042 170.25 49.625C169.479 47.625 169.094 45.5 169.094 43.25V42C169.094 39.4375 169.458 37.0938 170.188 34.9688C170.917 32.8438 171.958 31 173.312 29.4375C174.688 27.875 176.354 26.6771 178.312 25.8438C180.271 24.9896 182.479 24.5625 184.938 24.5625C187.333 24.5625 189.458 24.9583 191.312 25.75C193.167 26.5417 194.719 27.6667 195.969 29.125C197.24 30.5833 198.198 32.3333 198.844 34.375C199.49 36.3958 199.812 38.6458 199.812 41.125V44.875H172.938V38.875H190.969V38.1875C190.969 36.9375 190.74 35.8229 190.281 34.8438C189.844 33.8438 189.177 33.0521 188.281 32.4688C187.385 31.8854 186.24 31.5938 184.844 31.5938C183.656 31.5938 182.635 31.8542 181.781 32.375C180.927 32.8958 180.229 33.625 179.688 34.5625C179.167 35.5 178.771 36.6042 178.5 37.875C178.25 39.125 178.125 40.5 178.125 42V43.25C178.125 44.6042 178.312 45.8542 178.688 47C179.083 48.1458 179.635 49.1354 180.344 49.9688C181.073 50.8021 181.948 51.4479 182.969 51.9062C184.01 52.3646 185.188 52.5938 186.5 52.5938C188.125 52.5938 189.635 52.2812 191.031 51.6562C192.448 51.0104 193.667 50.0417 194.688 48.75L199.062 53.5C198.354 54.5208 197.385 55.5 196.156 56.4375C194.948 57.375 193.49 58.1458 191.781 58.75C190.073 59.3333 188.125 59.625 185.938 59.625ZM215.094 13.5L214.062 45.0938H206.562L205.5 13.5H215.094ZM205.25 54.875C205.25 53.5417 205.708 52.4375 206.625 51.5625C207.562 50.6667 208.792 50.2188 210.312 50.2188C211.854 50.2188 213.083 50.6667 214 51.5625C214.917 52.4375 215.375 53.5417 215.375 54.875C215.375 56.1667 214.917 57.2604 214 58.1562C213.083 59.0521 211.854 59.5 210.312 59.5C208.792 59.5 207.562 59.0521 206.625 58.1562C205.708 57.2604 205.25 56.1667 205.25 54.875Z" fill="white"/>
<path d="M70.3125 42.4375V41.7812C70.3125 39.3021 70.6667 37.0208 71.375 34.9375C72.0833 32.8333 73.1146 31.0104 74.4688 29.4688C75.8229 27.9271 77.4896 26.7292 79.4688 25.875C81.4479 25 83.7188 24.5625 86.2812 24.5625C88.8438 24.5625 91.125 25 93.125 25.875C95.125 26.7292 96.8021 27.9271 98.1562 29.4688C99.5312 31.0104 100.573 32.8333 101.281 34.9375C101.99 37.0208 102.344 39.3021 102.344 41.7812V42.4375C102.344 44.8958 101.99 47.1771 101.281 49.2812C100.573 51.3646 99.5312 53.1875 98.1562 54.75C96.8021 56.2917 95.1354 57.4896 93.1562 58.3438C91.1771 59.1979 88.9062 59.625 86.3438 59.625C83.7812 59.625 81.5 59.1979 79.5 58.3438C77.5208 57.4896 75.8438 56.2917 74.4688 54.75C73.1146 53.1875 72.0833 51.3646 71.375 49.2812C70.6667 47.1771 70.3125 44.8958 70.3125 42.4375ZM79.3125 41.7812V42.4375C79.3125 43.8542 79.4375 45.1771 79.6875 46.4062C79.9375 47.6354 80.3333 48.7188 80.875 49.6562C81.4375 50.5729 82.1667 51.2917 83.0625 51.8125C83.9583 52.3333 85.0521 52.5938 86.3438 52.5938C87.5938 52.5938 88.6667 52.3333 89.5625 51.8125C90.4583 51.2917 91.1771 50.5729 91.7188 49.6562C92.2604 48.7188 92.6562 47.6354 92.9062 46.4062C93.1771 45.1771 93.3125 43.8542 93.3125 42.4375V41.7812C93.3125 40.4062 93.1771 39.1146 92.9062 37.9062C92.6562 36.6771 92.25 35.5938 91.6875 34.6562C91.1458 33.6979 90.4271 32.9479 89.5312 32.4062C88.6354 31.8646 87.5521 31.5938 86.2812 31.5938C85.0104 31.5938 83.9271 31.8646 83.0312 32.4062C82.1562 32.9479 81.4375 33.6979 80.875 34.6562C80.3333 35.5938 79.9375 36.6771 79.6875 37.9062C79.4375 39.1146 79.3125 40.4062 79.3125 41.7812Z" fill="white"/>
<path d="M70.3125 42.4375V41.7812C70.3125 39.3021 70.6667 37.0208 71.375 34.9375C72.0833 32.8333 73.1146 31.0104 74.4688 29.4688C75.8229 27.9271 77.4896 26.7292 79.4688 25.875C81.4479 25 83.7188 24.5625 86.2812 24.5625C88.8438 24.5625 91.125 25 93.125 25.875C95.125 26.7292 96.8021 27.9271 98.1562 29.4688C99.5312 31.0104 100.573 32.8333 101.281 34.9375C101.99 37.0208 102.344 39.3021 102.344 41.7812V42.4375C102.344 44.8958 101.99 47.1771 101.281 49.2812C100.573 51.3646 99.5312 53.1875 98.1562 54.75C96.8021 56.2917 95.1354 57.4896 93.1562 58.3438C91.1771 59.1979 88.9062 59.625 86.3438 59.625C83.7812 59.625 81.5 59.1979 79.5 58.3438C77.5208 57.4896 75.8438 56.2917 74.4688 54.75C73.1146 53.1875 72.0833 51.3646 71.375 49.2812C70.6667 47.1771 70.3125 44.8958 70.3125 42.4375ZM79.3125 41.7812V42.4375C79.3125 43.8542 79.4375 45.1771 79.6875 46.4062C79.9375 47.6354 80.3333 48.7188 80.875 49.6562C81.4375 50.5729 82.1667 51.2917 83.0625 51.8125C83.9583 52.3333 85.0521 52.5938 86.3438 52.5938C87.5938 52.5938 88.6667 52.3333 89.5625 51.8125C90.4583 51.2917 91.1771 50.5729 91.7188 49.6562C92.2604 48.7188 92.6562 47.6354 92.9062 46.4062C93.1771 45.1771 93.3125 43.8542 93.3125 42.4375V41.7812C93.3125 40.4062 93.1771 39.1146 92.9062 37.9062C92.6562 36.6771 92.25 35.5938 91.6875 34.6562C91.1458 33.6979 90.4271 32.9479 89.5312 32.4062C88.6354 31.8646 87.5521 31.5938 86.2812 31.5938C85.0104 31.5938 83.9271 31.8646 83.0312 32.4062C82.1562 32.9479 81.4375 33.6979 80.875 34.6562C80.3333 35.5938 79.9375 36.6771 79.6875 37.9062C79.4375 39.1146 79.3125 40.4062 79.3125 41.7812Z" fill="#C83838"/>
<path d="M5.42284 90.24C4.78284 90.24 4.17484 90.16 3.59884 90C3.03884 89.824 2.51884 89.584 2.03884 89.28C1.55884 88.96 1.14284 88.584 0.790844 88.152L2.18284 86.76C2.59884 87.272 3.07884 87.656 3.62284 87.912C4.16684 88.152 4.77484 88.272 5.44684 88.272C6.11884 88.272 6.63884 88.16 7.00684 87.936C7.37484 87.696 7.55884 87.368 7.55884 86.952C7.55884 86.536 7.40684 86.216 7.10284 85.992C6.81484 85.752 6.43884 85.56 5.97484 85.416C5.51084 85.256 5.01484 85.104 4.48684 84.96C3.97484 84.8 3.48684 84.6 3.02284 84.36C2.55884 84.12 2.17484 83.792 1.87084 83.376C1.58284 82.96 1.43884 82.408 1.43884 81.72C1.43884 81.032 1.60684 80.44 1.94284 79.944C2.27884 79.432 2.74284 79.04 3.33484 78.768C3.94284 78.496 4.67084 78.36 5.51884 78.36C6.41484 78.36 7.20684 78.52 7.89484 78.84C8.59884 79.144 9.17484 79.608 9.62284 80.232L8.23084 81.624C7.91084 81.208 7.51084 80.888 7.03084 80.664C6.56684 80.44 6.03884 80.328 5.44684 80.328C4.82284 80.328 4.34284 80.44 4.00684 80.664C3.68684 80.872 3.52684 81.168 3.52684 81.552C3.52684 81.936 3.67084 82.232 3.95884 82.44C4.24684 82.648 4.62284 82.824 5.08684 82.968C5.56684 83.112 6.06284 83.264 6.57484 83.424C7.08684 83.568 7.57484 83.768 8.03884 84.024C8.50284 84.28 8.87884 84.624 9.16684 85.056C9.47084 85.488 9.62284 86.056 9.62284 86.76C9.62284 87.832 9.23884 88.68 8.47084 89.304C7.71884 89.928 6.70284 90.24 5.42284 90.24ZM13.793 90V73.824H15.953V90H13.793ZM10.985 80.568V78.6H18.761V80.568H10.985ZM25.3734 90.24C24.3334 90.24 23.3894 89.984 22.5414 89.472C21.6934 88.944 21.0214 88.232 20.5254 87.336C20.0454 86.44 19.8054 85.432 19.8054 84.312C19.8054 83.192 20.0454 82.184 20.5254 81.288C21.0214 80.392 21.6854 79.68 22.5174 79.152C23.3654 78.624 24.3174 78.36 25.3734 78.36C26.2374 78.36 27.0054 78.544 27.6774 78.912C28.3654 79.264 28.9174 79.76 29.3334 80.4C29.7494 81.024 29.9814 81.752 30.0294 82.584V86.016C29.9814 86.832 29.7494 87.56 29.3334 88.2C28.9334 88.84 28.3894 89.344 27.7014 89.712C27.0294 90.064 26.2534 90.24 25.3734 90.24ZM25.7334 88.2C26.8054 88.2 27.6694 87.84 28.3254 87.12C28.9814 86.384 29.3094 85.448 29.3094 84.312C29.3094 83.528 29.1574 82.848 28.8534 82.272C28.5654 81.68 28.1494 81.224 27.6054 80.904C27.0614 80.568 26.4294 80.4 25.7094 80.4C24.9894 80.4 24.3494 80.568 23.7894 80.904C23.2454 81.24 22.8134 81.704 22.4934 82.296C22.1894 82.872 22.0374 83.536 22.0374 84.288C22.0374 85.056 22.1894 85.736 22.4934 86.328C22.8134 86.904 23.2534 87.36 23.8134 87.696C24.3734 88.032 25.0134 88.2 25.7334 88.2ZM29.1654 90V86.928L29.5734 84.144L29.1654 81.384V78.6H31.3494V90H29.1654ZM34.4942 90V78.6H36.6542V90H34.4942ZM36.6542 83.496L35.8382 83.136C35.8382 81.68 36.1742 80.52 36.8462 79.656C37.5182 78.792 38.4862 78.36 39.7502 78.36C40.3262 78.36 40.8462 78.464 41.3102 78.672C41.7742 78.864 42.2062 79.192 42.6062 79.656L41.1902 81.12C40.9502 80.864 40.6862 80.68 40.3982 80.568C40.1102 80.456 39.7742 80.4 39.3902 80.4C38.5902 80.4 37.9342 80.656 37.4222 81.168C36.9102 81.68 36.6542 82.456 36.6542 83.496ZM45.8321 90V73.824H47.9921V90H45.8321ZM43.0241 80.568V78.6H50.8001V80.568H43.0241ZM61.6522 90.096L56.7082 78.6H59.1082L62.7802 87.6H62.0122L65.8762 78.6H68.2762L62.9482 90.096H61.6522ZM58.3882 94.776L61.7482 87.888L62.9482 90.096L60.7882 94.776H58.3882ZM74.8115 90.24C73.6915 90.24 72.6835 89.976 71.7875 89.448C70.8915 88.92 70.1795 88.208 69.6515 87.312C69.1235 86.4 68.8595 85.384 68.8595 84.264C68.8595 83.16 69.1235 82.168 69.6515 81.288C70.1795 80.392 70.8915 79.68 71.7875 79.152C72.6835 78.624 73.6915 78.36 74.8115 78.36C75.9155 78.36 76.9155 78.624 77.8115 79.152C78.7235 79.664 79.4435 80.368 79.9715 81.264C80.4995 82.16 80.7635 83.16 80.7635 84.264C80.7635 85.384 80.4995 86.4 79.9715 87.312C79.4435 88.208 78.7235 88.92 77.8115 89.448C76.9155 89.976 75.9155 90.24 74.8115 90.24ZM74.8115 88.152C75.5315 88.152 76.1715 87.984 76.7315 87.648C77.2915 87.312 77.7315 86.856 78.0515 86.28C78.3715 85.688 78.5315 85.016 78.5315 84.264C78.5315 83.528 78.3635 82.872 78.0275 82.296C77.7075 81.72 77.2675 81.272 76.7075 80.952C76.1635 80.616 75.5315 80.448 74.8115 80.448C74.0915 80.448 73.4515 80.616 72.8915 80.952C72.3315 81.272 71.8915 81.72 71.5715 82.296C71.2515 82.872 71.0915 83.528 71.0915 84.264C71.0915 85.016 71.2515 85.688 71.5715 86.28C71.8915 86.856 72.3315 87.312 72.8915 87.648C73.4515 87.984 74.0915 88.152 74.8115 88.152ZM87.7813 90.24C86.8533 90.24 86.0133 90.032 85.2613 89.616C84.5253 89.184 83.9493 88.592 83.5333 87.84C83.1173 87.088 82.9093 86.216 82.9093 85.224V78.6H85.0693V85.128C85.0693 85.752 85.1733 86.296 85.3813 86.76C85.6053 87.208 85.9253 87.552 86.3413 87.792C86.7573 88.032 87.2453 88.152 87.8053 88.152C88.6533 88.152 89.3173 87.888 89.7973 87.36C90.2773 86.816 90.5173 86.072 90.5173 85.128V78.6H92.6773V85.224C92.6773 86.216 92.4693 87.088 92.0533 87.84C91.6373 88.592 91.0613 89.184 90.3253 89.616C89.6053 90.032 88.7573 90.24 87.7813 90.24ZM95.5723 90V78.6H97.7323V90H95.5723ZM97.7323 83.496L96.9163 83.136C96.9163 81.68 97.2523 80.52 97.9243 79.656C98.5963 78.792 99.5643 78.36 100.828 78.36C101.404 78.36 101.924 78.464 102.388 78.672C102.852 78.864 103.284 79.192 103.684 79.656L102.268 81.12C102.028 80.864 101.764 80.68 101.476 80.568C101.188 80.456 100.852 80.4 100.468 80.4C99.6683 80.4 99.0123 80.656 98.5003 81.168C97.9883 81.68 97.7323 82.456 97.7323 83.496ZM115.827 90.24C114.707 90.24 113.699 89.976 112.803 89.448C111.907 88.92 111.195 88.208 110.667 87.312C110.139 86.4 109.875 85.384 109.875 84.264C109.875 83.16 110.139 82.168 110.667 81.288C111.195 80.392 111.907 79.68 112.803 79.152C113.699 78.624 114.707 78.36 115.827 78.36C116.931 78.36 117.931 78.624 118.827 79.152C119.739 79.664 120.459 80.368 120.987 81.264C121.515 82.16 121.779 83.16 121.779 84.264C121.779 85.384 121.515 86.4 120.987 87.312C120.459 88.208 119.739 88.92 118.827 89.448C117.931 89.976 116.931 90.24 115.827 90.24ZM115.827 88.152C116.547 88.152 117.187 87.984 117.747 87.648C118.307 87.312 118.747 86.856 119.067 86.28C119.387 85.688 119.547 85.016 119.547 84.264C119.547 83.528 119.379 82.872 119.043 82.296C118.723 81.72 118.283 81.272 117.723 80.952C117.179 80.616 116.547 80.448 115.827 80.448C115.107 80.448 114.467 80.616 113.907 80.952C113.347 81.272 112.907 81.72 112.587 82.296C112.267 82.872 112.107 83.528 112.107 84.264C112.107 85.016 112.267 85.688 112.587 86.28C112.907 86.856 113.347 87.312 113.907 87.648C114.467 87.984 115.107 88.152 115.827 88.152ZM127.149 90L122.637 78.6H124.893L128.157 87.48H127.437L130.677 78.6H131.925L135.165 87.48H134.445L137.709 78.6H139.965L135.477 90H134.205L130.917 81.384H131.709L128.397 90H127.149ZM149.949 90V83.352C149.949 82.488 149.677 81.776 149.133 81.216C148.589 80.656 147.885 80.376 147.021 80.376C146.445 80.376 145.933 80.504 145.485 80.76C145.037 81.016 144.685 81.368 144.429 81.816C144.173 82.264 144.045 82.776 144.045 83.352L143.157 82.848C143.157 81.984 143.349 81.216 143.733 80.544C144.117 79.872 144.653 79.344 145.341 78.96C146.029 78.56 146.805 78.36 147.669 78.36C148.533 78.36 149.293 78.576 149.949 79.008C150.621 79.44 151.149 80.008 151.533 80.712C151.917 81.4 152.109 82.136 152.109 82.92V90H149.949ZM141.885 90V78.6H144.045V90H141.885ZM166.025 90.24C165.161 90.24 164.377 90.064 163.673 89.712C162.985 89.344 162.433 88.84 162.017 88.2C161.601 87.56 161.369 86.832 161.321 86.016V82.584C161.369 81.752 161.601 81.024 162.017 80.4C162.449 79.76 163.009 79.264 163.697 78.912C164.401 78.544 165.177 78.36 166.025 78.36C167.065 78.36 168.001 78.624 168.833 79.152C169.681 79.68 170.345 80.392 170.825 81.288C171.305 82.184 171.545 83.192 171.545 84.312C171.545 85.432 171.305 86.44 170.825 87.336C170.345 88.232 169.681 88.944 168.833 89.472C168.001 89.984 167.065 90.24 166.025 90.24ZM165.665 88.2C166.385 88.2 167.017 88.032 167.561 87.696C168.105 87.36 168.537 86.904 168.857 86.328C169.177 85.736 169.337 85.056 169.337 84.288C169.337 83.536 169.177 82.864 168.857 82.272C168.537 81.68 168.105 81.224 167.561 80.904C167.017 80.568 166.393 80.4 165.689 80.4C164.969 80.4 164.337 80.568 163.793 80.904C163.249 81.224 162.825 81.68 162.521 82.272C162.217 82.864 162.065 83.544 162.065 84.312C162.065 85.064 162.209 85.736 162.497 86.328C162.801 86.904 163.225 87.36 163.769 87.696C164.329 88.032 164.961 88.2 165.665 88.2ZM160.025 94.776V78.6H162.185V81.6L161.777 84.36L162.185 87.144V94.776H160.025ZM179.202 90.24C178.082 90.24 177.074 89.976 176.178 89.448C175.282 88.92 174.57 88.208 174.042 87.312C173.514 86.4 173.25 85.384 173.25 84.264C173.25 83.16 173.514 82.168 174.042 81.288C174.57 80.392 175.282 79.68 176.178 79.152C177.074 78.624 178.082 78.36 179.202 78.36C180.306 78.36 181.306 78.624 182.202 79.152C183.114 79.664 183.834 80.368 184.362 81.264C184.89 82.16 185.154 83.16 185.154 84.264C185.154 85.384 184.89 86.4 184.362 87.312C183.834 88.208 183.114 88.92 182.202 89.448C181.306 89.976 180.306 90.24 179.202 90.24ZM179.202 88.152C179.922 88.152 180.562 87.984 181.122 87.648C181.682 87.312 182.122 86.856 182.442 86.28C182.762 85.688 182.922 85.016 182.922 84.264C182.922 83.528 182.754 82.872 182.418 82.296C182.098 81.72 181.658 81.272 181.098 80.952C180.554 80.616 179.922 80.448 179.202 80.448C178.482 80.448 177.842 80.616 177.282 80.952C176.722 81.272 176.282 81.72 175.962 82.296C175.642 82.872 175.482 83.528 175.482 84.264C175.482 85.016 175.642 85.688 175.962 86.28C176.282 86.856 176.722 87.312 177.282 87.648C177.842 87.984 178.482 88.152 179.202 88.152ZM187.588 90V78.6H189.748V90H187.588ZM189.748 83.496L188.932 83.136C188.932 81.68 189.268 80.52 189.94 79.656C190.612 78.792 191.58 78.36 192.844 78.36C193.42 78.36 193.94 78.464 194.404 78.672C194.868 78.864 195.3 79.192 195.7 79.656L194.284 81.12C194.044 80.864 193.78 80.68 193.492 80.568C193.204 80.456 192.868 80.4 192.484 80.4C191.684 80.4 191.028 80.656 190.516 81.168C190.004 81.68 189.748 82.456 189.748 83.496ZM198.926 90V73.824H201.086V90H198.926ZM196.118 80.568V78.6H203.894V80.568H196.118ZM207.196 90V76.896C207.196 76.048 207.38 75.312 207.748 74.688C208.116 74.048 208.62 73.544 209.26 73.176C209.916 72.808 210.676 72.624 211.54 72.624C212.196 72.624 212.764 72.736 213.244 72.96C213.724 73.184 214.164 73.512 214.564 73.944L213.148 75.336C212.94 75.112 212.708 74.944 212.452 74.832C212.196 74.704 211.884 74.64 211.516 74.64C210.828 74.64 210.292 74.84 209.908 75.24C209.54 75.64 209.356 76.192 209.356 76.896V90H207.196ZM204.388 80.568V78.6H212.98V80.568H204.388ZM219.702 90.24C218.582 90.24 217.574 89.976 216.678 89.448C215.782 88.92 215.07 88.208 214.542 87.312C214.014 86.4 213.75 85.384 213.75 84.264C213.75 83.16 214.014 82.168 214.542 81.288C215.07 80.392 215.782 79.68 216.678 79.152C217.574 78.624 218.582 78.36 219.702 78.36C220.806 78.36 221.806 78.624 222.702 79.152C223.614 79.664 224.334 80.368 224.862 81.264C225.39 82.16 225.654 83.16 225.654 84.264C225.654 85.384 225.39 86.4 224.862 87.312C224.334 88.208 223.614 88.92 222.702 89.448C221.806 89.976 220.806 90.24 219.702 90.24ZM219.702 88.152C220.422 88.152 221.062 87.984 221.622 87.648C222.182 87.312 222.622 86.856 222.942 86.28C223.262 85.688 223.422 85.016 223.422 84.264C223.422 83.528 223.254 82.872 222.918 82.296C222.598 81.72 222.158 81.272 221.598 80.952C221.054 80.616 220.422 80.448 219.702 80.448C218.982 80.448 218.342 80.616 217.782 80.952C217.222 81.272 216.782 81.72 216.462 82.296C216.142 82.872 215.982 83.528 215.982 84.264C215.982 85.016 216.142 85.688 216.462 86.28C216.782 86.856 217.222 87.312 217.782 87.648C218.342 87.984 218.982 88.152 219.702 88.152ZM228.088 90V72.864H230.248V90H228.088ZM233.432 90V78.6H235.592V90H233.432ZM234.512 76.32C234.112 76.32 233.784 76.192 233.528 75.936C233.272 75.664 233.144 75.328 233.144 74.928C233.144 74.544 233.272 74.224 233.528 73.968C233.784 73.696 234.112 73.56 234.512 73.56C234.912 73.56 235.24 73.696 235.496 73.968C235.752 74.224 235.88 74.544 235.88 74.928C235.88 75.328 235.752 75.664 235.496 75.936C235.24 76.192 234.912 76.32 234.512 76.32ZM243.983 90.24C242.863 90.24 241.855 89.976 240.959 89.448C240.063 88.92 239.351 88.208 238.823 87.312C238.295 86.4 238.031 85.384 238.031 84.264C238.031 83.16 238.295 82.168 238.823 81.288C239.351 80.392 240.063 79.68 240.959 79.152C241.855 78.624 242.863 78.36 243.983 78.36C245.087 78.36 246.087 78.624 246.983 79.152C247.895 79.664 248.615 80.368 249.143 81.264C249.671 82.16 249.935 83.16 249.935 84.264C249.935 85.384 249.671 86.4 249.143 87.312C248.615 88.208 247.895 88.92 246.983 89.448C246.087 89.976 245.087 90.24 243.983 90.24ZM243.983 88.152C244.703 88.152 245.343 87.984 245.903 87.648C246.463 87.312 246.903 86.856 247.223 86.28C247.543 85.688 247.703 85.016 247.703 84.264C247.703 83.528 247.535 82.872 247.199 82.296C246.879 81.72 246.439 81.272 245.879 80.952C245.335 80.616 244.703 80.448 243.983 80.448C243.263 80.448 242.623 80.616 242.063 80.952C241.503 81.272 241.063 81.72 240.743 82.296C240.423 82.872 240.263 83.528 240.263 84.264C240.263 85.016 240.423 85.688 240.743 86.28C241.063 86.856 241.503 87.312 242.063 87.648C242.623 87.984 243.263 88.152 243.983 88.152Z" fill="white"/>
</svg>
