<?xml version="1.0" encoding="UTF-8" standalone="no"?>
<svg
   width="251"
   height="96"
   viewBox="0 0 251 96"
   fill="none"
   version="1.1"
   id="svg10"
   sodipodi:docname="logo2.svg"
   inkscape:export-filename="logo2.png"
   inkscape:export-xdpi="96"
   inkscape:export-ydpi="96"
   inkscape:version="1.2 (dc2aedaf03, 2022-05-15)"
   xmlns:inkscape="http://www.inkscape.org/namespaces/inkscape"
   xmlns:sodipodi="http://sodipodi.sourceforge.net/DTD/sodipodi-0.dtd"
   xmlns="http://www.w3.org/2000/svg"
   xmlns:svg="http://www.w3.org/2000/svg">
  <defs
     id="defs14" />
  <sodipodi:namedview
     id="namedview12"
     pagecolor="#ffffff"
     bordercolor="#000000"
     borderopacity="0.25"
     inkscape:showpageshadow="2"
     inkscape:pageopacity="0.0"
     inkscape:pagecheckerboard="0"
     inkscape:deskcolor="#d1d1d1"
     showgrid="false"
     inkscape:zoom="2.9780877"
     inkscape:cx="112.3204"
     inkscape:cy="37.608027"
     inkscape:window-width="1920"
     inkscape:window-height="1017"
     inkscape:window-x="-8"
     inkscape:window-y="-8"
     inkscape:window-maximized="1"
     inkscape:current-layer="svg10" />
  <path
     d="M44.75 31.6875V72H35.75V25.1875H44.0938L44.75 31.6875ZM66.1562 41.7188V42.375C66.1562 44.8333 65.8646 47.1146 65.2812 49.2188C64.7188 51.3229 63.8854 53.1562 62.7812 54.7188C61.6771 56.2604 60.3021 57.4688 58.6562 58.3438C57.0312 59.1979 55.1562 59.625 53.0312 59.625C50.9688 59.625 49.1771 59.2083 47.6562 58.375C46.1354 57.5417 44.8542 56.375 43.8125 54.875C42.7917 53.3542 41.9688 51.5938 41.3438 49.5938C40.7188 47.5938 40.2396 45.4479 39.9062 43.1562V41.4375C40.2396 38.9792 40.7188 36.7292 41.3438 34.6875C41.9688 32.625 42.7917 30.8438 43.8125 29.3438C44.8542 27.8229 46.125 26.6458 47.625 25.8125C49.1458 24.9792 50.9271 24.5625 52.9688 24.5625C55.1146 24.5625 57 24.9688 58.625 25.7812C60.2708 26.5938 61.6458 27.7604 62.75 29.2812C63.875 30.8021 64.7188 32.6146 65.2812 34.7188C65.8646 36.8229 66.1562 39.1562 66.1562 41.7188ZM57.125 42.375V41.7188C57.125 40.2812 57 38.9583 56.75 37.75C56.5208 36.5208 56.1458 35.4479 55.625 34.5312C55.125 33.6146 54.4583 32.9062 53.625 32.4062C52.8125 31.8854 51.8229 31.625 50.6562 31.625C49.4271 31.625 48.375 31.8229 47.5 32.2188C46.6458 32.6146 45.9479 33.1875 45.4062 33.9375C44.8646 34.6875 44.4583 35.5833 44.1875 36.625C43.9167 37.6667 43.75 38.8438 43.6875 40.1562V44.5C43.7917 46.0417 44.0833 47.4271 44.5625 48.6562C45.0417 49.8646 45.7812 50.8229 46.7812 51.5312C47.7812 52.2396 49.0938 52.5938 50.7188 52.5938C51.9062 52.5938 52.9062 52.3333 53.7188 51.8125C54.5312 51.2708 55.1875 50.5312 55.6875 49.5938C56.2083 48.6562 56.5729 47.5729 56.7812 46.3438C57.0104 45.1146 57.125 43.7917 57.125 42.375ZM116.875 32.5625V59H107.875V25.1875H116.344L116.875 32.5625ZM127.062 24.9688L126.906 33.3125C126.469 33.25 125.938 33.1979 125.312 33.1562C124.708 33.0938 124.156 33.0625 123.656 33.0625C122.385 33.0625 121.281 33.2292 120.344 33.5625C119.427 33.875 118.656 34.3438 118.031 34.9688C117.427 35.5938 116.969 36.3542 116.656 37.25C116.365 38.1458 116.198 39.1667 116.156 40.3125L114.344 39.75C114.344 37.5625 114.562 35.5521 115 33.7188C115.438 31.8646 116.073 30.25 116.906 28.875C117.76 27.5 118.802 26.4375 120.031 25.6875C121.26 24.9375 122.667 24.5625 124.25 24.5625C124.75 24.5625 125.26 24.6042 125.781 24.6875C126.302 24.75 126.729 24.8438 127.062 24.9688ZM142.562 59H133.531V23.6562C133.531 20.7812 134.115 18.3542 135.281 16.375C136.469 14.3958 138.156 12.8958 140.344 11.875C142.552 10.8542 145.219 10.3438 148.344 10.3438C150.115 10.3438 151.833 10.5208 153.5 10.875C155.167 11.2083 156.885 11.6458 158.656 12.1875L157.344 19.4062C156.198 19.0521 154.969 18.7188 153.656 18.4062C152.344 18.0938 150.76 17.9375 148.906 17.9375C146.823 17.9375 145.24 18.4271 144.156 19.4062C143.094 20.3646 142.562 21.7812 142.562 23.6562V59ZM149.281 25.1875V31.5625H128.5V25.1875H149.281ZM162.844 25.1875V59H153.812V25.1875H162.844ZM185.938 59.625C183.312 59.625 180.958 59.2083 178.875 58.375C176.792 57.5208 175.021 56.3438 173.562 54.8438C172.125 53.3438 171.021 51.6042 170.25 49.625C169.479 47.625 169.094 45.5 169.094 43.25V42C169.094 39.4375 169.458 37.0938 170.188 34.9688C170.917 32.8438 171.958 31 173.312 29.4375C174.688 27.875 176.354 26.6771 178.312 25.8438C180.271 24.9896 182.479 24.5625 184.938 24.5625C187.333 24.5625 189.458 24.9583 191.312 25.75C193.167 26.5417 194.719 27.6667 195.969 29.125C197.24 30.5833 198.198 32.3333 198.844 34.375C199.49 36.3958 199.812 38.6458 199.812 41.125V44.875H172.938V38.875H190.969V38.1875C190.969 36.9375 190.74 35.8229 190.281 34.8438C189.844 33.8438 189.177 33.0521 188.281 32.4688C187.385 31.8854 186.24 31.5938 184.844 31.5938C183.656 31.5938 182.635 31.8542 181.781 32.375C180.927 32.8958 180.229 33.625 179.688 34.5625C179.167 35.5 178.771 36.6042 178.5 37.875C178.25 39.125 178.125 40.5 178.125 42V43.25C178.125 44.6042 178.312 45.8542 178.688 47C179.083 48.1458 179.635 49.1354 180.344 49.9688C181.073 50.8021 181.948 51.4479 182.969 51.9062C184.01 52.3646 185.188 52.5938 186.5 52.5938C188.125 52.5938 189.635 52.2812 191.031 51.6562C192.448 51.0104 193.667 50.0417 194.688 48.75L199.062 53.5C198.354 54.5208 197.385 55.5 196.156 56.4375C194.948 57.375 193.49 58.1458 191.781 58.75C190.073 59.3333 188.125 59.625 185.938 59.625ZM215.094 13.5L214.062 45.0938H206.562L205.5 13.5H215.094ZM205.25 54.875C205.25 53.5417 205.708 52.4375 206.625 51.5625C207.562 50.6667 208.792 50.2188 210.312 50.2188C211.854 50.2188 213.083 50.6667 214 51.5625C214.917 52.4375 215.375 53.5417 215.375 54.875C215.375 56.1667 214.917 57.2604 214 58.1562C213.083 59.0521 211.854 59.5 210.312 59.5C208.792 59.5 207.562 59.0521 206.625 58.1562C205.708 57.2604 205.25 56.1667 205.25 54.875Z"
     fill="white"
     id="path2" />
  <path
     d="M70.3125 42.4375V41.7812C70.3125 39.3021 70.6667 37.0208 71.375 34.9375C72.0833 32.8333 73.1146 31.0104 74.4688 29.4688C75.8229 27.9271 77.4896 26.7292 79.4688 25.875C81.4479 25 83.7188 24.5625 86.2812 24.5625C88.8438 24.5625 91.125 25 93.125 25.875C95.125 26.7292 96.8021 27.9271 98.1562 29.4688C99.5312 31.0104 100.573 32.8333 101.281 34.9375C101.99 37.0208 102.344 39.3021 102.344 41.7812V42.4375C102.344 44.8958 101.99 47.1771 101.281 49.2812C100.573 51.3646 99.5312 53.1875 98.1562 54.75C96.8021 56.2917 95.1354 57.4896 93.1562 58.3438C91.1771 59.1979 88.9062 59.625 86.3438 59.625C83.7812 59.625 81.5 59.1979 79.5 58.3438C77.5208 57.4896 75.8438 56.2917 74.4688 54.75C73.1146 53.1875 72.0833 51.3646 71.375 49.2812C70.6667 47.1771 70.3125 44.8958 70.3125 42.4375ZM79.3125 41.7812V42.4375C79.3125 43.8542 79.4375 45.1771 79.6875 46.4062C79.9375 47.6354 80.3333 48.7188 80.875 49.6562C81.4375 50.5729 82.1667 51.2917 83.0625 51.8125C83.9583 52.3333 85.0521 52.5938 86.3438 52.5938C87.5938 52.5938 88.6667 52.3333 89.5625 51.8125C90.4583 51.2917 91.1771 50.5729 91.7188 49.6562C92.2604 48.7188 92.6562 47.6354 92.9062 46.4062C93.1771 45.1771 93.3125 43.8542 93.3125 42.4375V41.7812C93.3125 40.4062 93.1771 39.1146 92.9062 37.9062C92.6562 36.6771 92.25 35.5938 91.6875 34.6562C91.1458 33.6979 90.4271 32.9479 89.5312 32.4062C88.6354 31.8646 87.5521 31.5938 86.2812 31.5938C85.0104 31.5938 83.9271 31.8646 83.0312 32.4062C82.1562 32.9479 81.4375 33.6979 80.875 34.6562C80.3333 35.5938 79.9375 36.6771 79.6875 37.9062C79.4375 39.1146 79.3125 40.4062 79.3125 41.7812Z"
     fill="white"
     id="path4" />
  <path
     d="M70.3125 42.4375V41.7812C70.3125 39.3021 70.6667 37.0208 71.375 34.9375C72.0833 32.8333 73.1146 31.0104 74.4688 29.4688C75.8229 27.9271 77.4896 26.7292 79.4688 25.875C81.4479 25 83.7188 24.5625 86.2812 24.5625C88.8438 24.5625 91.125 25 93.125 25.875C95.125 26.7292 96.8021 27.9271 98.1562 29.4688C99.5312 31.0104 100.573 32.8333 101.281 34.9375C101.99 37.0208 102.344 39.3021 102.344 41.7812V42.4375C102.344 44.8958 101.99 47.1771 101.281 49.2812C100.573 51.3646 99.5312 53.1875 98.1562 54.75C96.8021 56.2917 95.1354 57.4896 93.1562 58.3438C91.1771 59.1979 88.9062 59.625 86.3438 59.625C83.7812 59.625 81.5 59.1979 79.5 58.3438C77.5208 57.4896 75.8438 56.2917 74.4688 54.75C73.1146 53.1875 72.0833 51.3646 71.375 49.2812C70.6667 47.1771 70.3125 44.8958 70.3125 42.4375ZM79.3125 41.7812V42.4375C79.3125 43.8542 79.4375 45.1771 79.6875 46.4062C79.9375 47.6354 80.3333 48.7188 80.875 49.6562C81.4375 50.5729 82.1667 51.2917 83.0625 51.8125C83.9583 52.3333 85.0521 52.5938 86.3438 52.5938C87.5938 52.5938 88.6667 52.3333 89.5625 51.8125C90.4583 51.2917 91.1771 50.5729 91.7188 49.6562C92.2604 48.7188 92.6562 47.6354 92.9062 46.4062C93.1771 45.1771 93.3125 43.8542 93.3125 42.4375V41.7812C93.3125 40.4062 93.1771 39.1146 92.9062 37.9062C92.6562 36.6771 92.25 35.5938 91.6875 34.6562C91.1458 33.6979 90.4271 32.9479 89.5312 32.4062C88.6354 31.8646 87.5521 31.5938 86.2812 31.5938C85.0104 31.5938 83.9271 31.8646 83.0312 32.4062C82.1562 32.9479 81.4375 33.6979 80.875 34.6562C80.3333 35.5938 79.9375 36.6771 79.6875 37.9062C79.4375 39.1146 79.3125 40.4062 79.3125 41.7812Z"
     fill="#C83838"
     id="path6" />
</svg>
