<svg width="191" height="100" viewBox="0 0 191 100" fill="none" xmlns="http://www.w3.org/2000/svg">
<rect width="191" height="100" fill="#A0A0A0"/>
<path d="M23 76C23 60.8122 35.3122 48.5 50.5 48.5V48.5C65.6878 48.5 78 60.8122 78 76V100H23V76Z" fill="#D9D9D9"/>
<circle cx="50.75" cy="28.25" r="16.25" fill="#D9D9D9"/>
<path d="M112.5 76C112.5 60.8122 124.812 48.5 140 48.5V48.5C155.188 48.5 167.5 60.8122 167.5 76V100H112.5V76Z" fill="#D9D9D9"/>
<circle cx="140.25" cy="28.25" r="16.25" fill="#D9D9D9"/>
<path d="M67.5 76C67.5 60.8122 79.8122 48.5 95 48.5V48.5C110.188 48.5 122.5 60.8122 122.5 76V100H67.5V76Z" fill="white"/>
<circle cx="95.25" cy="28.25" r="16.25" fill="white"/>
</svg>
